<svg width="183" height="63" viewBox="0 0 183 63" fill="none" xmlns="http://www.w3.org/2000/svg">
<path d="M60.3589 22.2972H64.7241L69.0211 33.5739L73.3635 22.2972H77.6832V38.3938H74.955V25.0254H74.9095L70.0214 38.3938H68.0207L63.1326 25.0254H63.0872V38.3938H60.3589V22.2972ZM87.9091 36.8933H87.8409C87.4468 37.5147 86.9467 37.9694 86.3404 38.2574C85.7341 38.5302 85.0672 38.6666 84.3397 38.6666C83.8395 38.6666 83.3469 38.5984 82.8619 38.462C82.392 38.3256 81.9676 38.121 81.5887 37.8482C81.2249 37.5753 80.9294 37.2343 80.702 36.8251C80.4747 36.4158 80.361 35.9384 80.361 35.3927C80.361 34.8016 80.4671 34.3014 80.6793 33.8922C80.8915 33.4678 81.1719 33.1192 81.5205 32.8464C81.8843 32.5584 82.3011 32.3311 82.7709 32.1643C83.2408 31.9976 83.7258 31.8763 84.226 31.8006C84.7413 31.7096 85.2567 31.6566 85.772 31.6414C86.2873 31.6111 86.7724 31.5959 87.2271 31.5959H87.9091V31.3004C87.9091 30.6183 87.6742 30.1106 87.2043 29.7771C86.7345 29.4285 86.1358 29.2542 85.4082 29.2542C84.8323 29.2542 84.2942 29.3603 83.794 29.5725C83.2939 29.7695 82.8619 30.0424 82.4981 30.391L81.0658 28.9587C81.6721 28.3372 82.3769 27.8901 83.1802 27.6173C83.9987 27.3444 84.8399 27.208 85.7038 27.208C86.4768 27.208 87.1285 27.299 87.659 27.4809C88.1895 27.6476 88.6291 27.8674 88.9777 28.1402C89.3263 28.413 89.5915 28.7313 89.7734 29.0951C89.9705 29.4437 90.1069 29.7999 90.1827 30.1636C90.2736 30.5274 90.3266 30.8836 90.3418 31.2322C90.357 31.5656 90.3645 31.8612 90.3645 32.1189V38.3938H87.9091V36.8933ZM87.75 33.5057H87.1816C86.8027 33.5057 86.3783 33.5209 85.9084 33.5512C85.4386 33.5815 84.9914 33.6573 84.567 33.7785C84.1578 33.8846 83.8092 34.0514 83.5212 34.2787C83.2332 34.4909 83.0892 34.794 83.0892 35.1881C83.0892 35.4458 83.1423 35.6656 83.2484 35.8474C83.3696 36.0142 83.5212 36.1582 83.7031 36.2794C83.885 36.4007 84.0896 36.4916 84.3169 36.5522C84.5443 36.5977 84.7717 36.6204 84.999 36.6204C85.9387 36.6204 86.6284 36.4007 87.0679 35.9611C87.5226 35.5064 87.75 34.8926 87.75 34.1196V33.5057ZM86.8406 22.2972H89.9326L86.7269 25.5711H84.5898L86.8406 22.2972ZM99.1201 30.5047C98.5896 29.762 97.8772 29.3906 96.983 29.3906C96.6192 29.3906 96.263 29.4816 95.9144 29.6634C95.5658 29.8453 95.3915 30.1409 95.3915 30.5501C95.3915 30.8836 95.5355 31.1261 95.8235 31.2777C96.1115 31.4292 96.4752 31.5581 96.9148 31.6642C97.3543 31.7703 97.8242 31.8839 98.3244 32.0052C98.8397 32.1113 99.3171 32.2856 99.7567 32.5281C100.196 32.7554 100.56 33.0737 100.848 33.483C101.136 33.8922 101.28 34.453 101.28 35.1654C101.28 35.8171 101.136 36.3704 100.848 36.8251C100.575 37.2646 100.211 37.6208 99.7567 37.8936C99.3171 38.1664 98.817 38.3635 98.2562 38.4847C97.6954 38.606 97.1346 38.6666 96.5738 38.6666C95.725 38.6666 94.9444 38.5454 94.232 38.3029C93.5196 38.0603 92.8831 37.6208 92.3223 36.9842L94.1411 35.2791C94.4897 35.6731 94.861 35.999 95.2551 36.2567C95.6643 36.4992 96.1569 36.6204 96.7329 36.6204C96.9299 36.6204 97.1346 36.5977 97.3468 36.5522C97.5589 36.5068 97.756 36.431 97.9379 36.3249C98.1198 36.2188 98.2637 36.09 98.3698 35.9384C98.4911 35.7717 98.5517 35.5822 98.5517 35.37C98.5517 34.9911 98.4077 34.7107 98.1198 34.5288C97.8318 34.3469 97.468 34.2029 97.0285 34.0968C96.5889 33.9756 96.1115 33.8695 95.5961 33.7785C95.096 33.6724 94.6261 33.5133 94.1865 33.3011C93.747 33.0737 93.3832 32.763 93.0953 32.3689C92.8073 31.9749 92.6633 31.4292 92.6633 30.732C92.6633 30.1257 92.7845 29.6028 93.027 29.1633C93.2847 28.7086 93.6182 28.3372 94.0274 28.0492C94.4366 27.7613 94.9065 27.5491 95.437 27.4127C95.9675 27.2762 96.5055 27.208 97.0512 27.208C97.7787 27.208 98.4987 27.3369 99.211 27.5945C99.9234 27.837 100.499 28.2614 100.939 28.8677L99.1201 30.5047ZM116.95 36.8933H116.882C116.488 37.5147 115.987 37.9694 115.381 38.2574C114.775 38.5302 114.108 38.6666 113.38 38.6666C112.88 38.6666 112.388 38.5984 111.903 38.462C111.433 38.3256 111.008 38.121 110.629 37.8482C110.266 37.5753 109.97 37.2343 109.743 36.8251C109.515 36.4158 109.402 35.9384 109.402 35.3927C109.402 34.8016 109.508 34.3014 109.72 33.8922C109.932 33.4678 110.213 33.1192 110.561 32.8464C110.925 32.5584 111.342 32.3311 111.812 32.1643C112.282 31.9976 112.767 31.8763 113.267 31.8006C113.782 31.7096 114.297 31.6566 114.813 31.6414C115.328 31.6111 115.813 31.5959 116.268 31.5959H116.95V31.3004C116.95 30.6183 116.715 30.1106 116.245 29.7771C115.775 29.4285 115.177 29.2542 114.449 29.2542C113.873 29.2542 113.335 29.3603 112.835 29.5725C112.335 29.7695 111.903 30.0424 111.539 30.391L110.107 28.9587C110.713 28.3372 111.418 27.8901 112.221 27.6173C113.039 27.3444 113.881 27.208 114.745 27.208C115.518 27.208 116.169 27.299 116.7 27.4809C117.23 27.6476 117.67 27.8674 118.018 28.1402C118.367 28.413 118.632 28.7313 118.814 29.0951C119.011 29.4437 119.148 29.7999 119.223 30.1636C119.314 30.5274 119.367 30.8836 119.383 31.2322C119.398 31.5656 119.405 31.8612 119.405 32.1189V38.3938H116.95V36.8933ZM116.791 33.5057H116.222C115.843 33.5057 115.419 33.5209 114.949 33.5512C114.479 33.5815 114.032 33.6573 113.608 33.7785C113.199 33.8846 112.85 34.0514 112.562 34.2787C112.274 34.4909 112.13 34.794 112.13 35.1881C112.13 35.4458 112.183 35.6656 112.289 35.8474C112.41 36.0142 112.562 36.1582 112.744 36.2794C112.926 36.4007 113.13 36.4916 113.358 36.5522C113.585 36.5977 113.812 36.6204 114.04 36.6204C114.98 36.6204 115.669 36.4007 116.109 35.9611C116.563 35.5064 116.791 34.8926 116.791 34.1196V33.5057ZM122.386 21.2059H125.114V38.3938H122.386V21.2059ZM128.314 21.2059H131.042V38.3938H128.314V21.2059ZM140.995 36.8933H140.927C140.533 37.5147 140.033 37.9694 139.426 38.2574C138.82 38.5302 138.153 38.6666 137.426 38.6666C136.926 38.6666 136.433 38.5984 135.948 38.462C135.478 38.3256 135.054 38.121 134.675 37.8482C134.311 37.5753 134.015 37.2343 133.788 36.8251C133.561 36.4158 133.447 35.9384 133.447 35.3927C133.447 34.8016 133.553 34.3014 133.765 33.8922C133.978 33.4678 134.258 33.1192 134.607 32.8464C134.97 32.5584 135.387 32.3311 135.857 32.1643C136.327 31.9976 136.812 31.8763 137.312 31.8006C137.827 31.7096 138.343 31.6566 138.858 31.6414C139.373 31.6111 139.858 31.5959 140.313 31.5959H140.995V31.3004C140.995 30.6183 140.76 30.1106 140.29 29.7771C139.82 29.4285 139.222 29.2542 138.494 29.2542C137.918 29.2542 137.38 29.3603 136.88 29.5725C136.38 29.7695 135.948 30.0424 135.584 30.391L134.152 28.9587C134.758 28.3372 135.463 27.8901 136.266 27.6173C137.085 27.3444 137.926 27.208 138.79 27.208C139.563 27.208 140.215 27.299 140.745 27.4809C141.276 27.6476 141.715 27.8674 142.064 28.1402C142.412 28.413 142.678 28.7313 142.859 29.0951C143.056 29.4437 143.193 29.7999 143.269 30.1636C143.36 30.5274 143.413 30.8836 143.428 31.2322C143.443 31.5656 143.451 31.8612 143.451 32.1189V38.3938H140.995V36.8933ZM140.836 33.5057H140.268C139.889 33.5057 139.464 33.5209 138.994 33.5512C138.525 33.5815 138.077 33.6573 137.653 33.7785C137.244 33.8846 136.895 34.0514 136.607 34.2787C136.319 34.4909 136.175 34.794 136.175 35.1881C136.175 35.4458 136.228 35.6656 136.334 35.8474C136.456 36.0142 136.607 36.1582 136.789 36.2794C136.971 36.4007 137.176 36.4916 137.403 36.5522C137.63 36.5977 137.858 36.6204 138.085 36.6204C139.025 36.6204 139.714 36.4007 140.154 35.9611C140.609 35.5064 140.836 34.8926 140.836 34.1196V33.5057ZM139.927 22.2972H143.019L139.813 25.5711H137.676L139.927 22.2972ZM161.753 36.7569H161.707C161.313 37.4238 160.783 37.9088 160.116 38.2119C159.449 38.5151 158.729 38.6666 157.956 38.6666C157.107 38.6666 156.349 38.5226 155.682 38.2347C155.031 37.9315 154.47 37.5223 154 37.0069C153.53 36.4916 153.174 35.8853 152.931 35.1881C152.689 34.4909 152.568 33.7406 152.568 32.9373C152.568 32.134 152.696 31.3838 152.954 30.6865C153.212 29.9893 153.568 29.383 154.023 28.8677C154.492 28.3524 155.053 27.9507 155.705 27.6627C156.357 27.3596 157.069 27.208 157.842 27.208C158.357 27.208 158.812 27.2611 159.206 27.3672C159.6 27.4733 159.949 27.6097 160.252 27.7764C160.555 27.9431 160.813 28.125 161.025 28.3221C161.237 28.5039 161.412 28.6858 161.548 28.8677H161.616V21.2059H164.344V38.3938H161.753V36.7569ZM155.296 32.9373C155.296 33.3617 155.364 33.771 155.5 34.165C155.652 34.5591 155.864 34.9077 156.137 35.2109C156.425 35.514 156.766 35.7565 157.16 35.9384C157.554 36.1203 158.001 36.2112 158.501 36.2112C159.002 36.2112 159.449 36.1203 159.843 35.9384C160.237 35.7565 160.57 35.514 160.843 35.2109C161.131 34.9077 161.343 34.5591 161.48 34.165C161.631 33.771 161.707 33.3617 161.707 32.9373C161.707 32.5129 161.631 32.1037 161.48 31.7096C161.343 31.3155 161.131 30.9669 160.843 30.6638C160.57 30.3607 160.237 30.1182 159.843 29.9363C159.449 29.7544 159.002 29.6634 158.501 29.6634C158.001 29.6634 157.554 29.7544 157.16 29.9363C156.766 30.1182 156.425 30.3607 156.137 30.6638C155.864 30.9669 155.652 31.3155 155.5 31.7096C155.364 32.1037 155.296 32.5129 155.296 32.9373ZM169.616 33.8922C169.707 34.7107 170.026 35.3473 170.571 35.802C171.117 36.2567 171.776 36.484 172.549 36.484C173.231 36.484 173.8 36.3476 174.254 36.0748C174.724 35.7868 175.133 35.4306 175.482 35.0062L177.437 36.484C176.801 37.2722 176.088 37.833 175.3 38.1664C174.512 38.4999 173.686 38.6666 172.822 38.6666C172.004 38.6666 171.231 38.5302 170.503 38.2574C169.776 37.9846 169.147 37.5981 168.616 37.0979C168.086 36.5977 167.661 35.999 167.343 35.3018C167.04 34.5894 166.888 33.8013 166.888 32.9373C166.888 32.0734 167.04 31.2928 167.343 30.5956C167.661 29.8832 168.086 29.2769 168.616 28.7768C169.147 28.2766 169.776 27.8901 170.503 27.6173C171.231 27.3444 172.004 27.208 172.822 27.208C173.58 27.208 174.27 27.3444 174.891 27.6173C175.528 27.8749 176.066 28.2539 176.505 28.754C176.96 29.2542 177.308 29.8756 177.551 30.6183C177.809 31.3459 177.937 32.1871 177.937 33.1419V33.8922H169.616ZM175.209 31.846C175.194 31.0427 174.944 30.4137 174.459 29.959C173.974 29.4891 173.299 29.2542 172.436 29.2542C171.617 29.2542 170.965 29.4891 170.48 29.959C170.01 30.4289 169.722 31.0579 169.616 31.846H175.209ZM60.0861 42.2059H62.8143V59.3938H60.0861V42.2059ZM72.7671 57.8933H72.6989C72.3048 58.5147 71.8046 58.9694 71.1983 59.2574C70.5921 59.5302 69.9252 59.6666 69.1976 59.6666C68.6974 59.6666 68.2048 59.5984 67.7198 59.462C67.25 59.3256 66.8256 59.121 66.4467 58.8482C66.0829 58.5753 65.7873 58.2343 65.56 57.8251C65.3326 57.4158 65.2189 56.9384 65.2189 56.3927C65.2189 55.8016 65.325 55.3014 65.5372 54.8922C65.7494 54.4678 66.0298 54.1192 66.3784 53.8464C66.7422 53.5584 67.159 53.3311 67.6289 53.1643C68.0988 52.9976 68.5838 52.8763 69.0839 52.8006C69.5993 52.7096 70.1146 52.6566 70.6299 52.6414C71.1453 52.6111 71.6303 52.5959 72.085 52.5959H72.7671V52.3004C72.7671 51.6183 72.5321 51.1106 72.0623 50.7771C71.5924 50.4285 70.9937 50.2542 70.2662 50.2542C69.6902 50.2542 69.1522 50.3603 68.652 50.5725C68.1518 50.7695 67.7198 51.0424 67.3561 51.391L65.9237 49.9587C66.53 49.3372 67.2348 48.8901 68.0381 48.6173C68.8566 48.3444 69.6978 48.208 70.5617 48.208C71.3347 48.208 71.9865 48.299 72.517 48.4809C73.0475 48.6476 73.487 48.8674 73.8356 49.1402C74.1842 49.413 74.4495 49.7313 74.6314 50.0951C74.8284 50.4437 74.9648 50.7999 75.0406 51.1636C75.1315 51.5274 75.1846 51.8836 75.1997 52.2322C75.2149 52.5656 75.2225 52.8612 75.2225 53.1189V59.3938H72.7671V57.8933ZM72.6079 54.5057H72.0395C71.6606 54.5057 71.2362 54.5209 70.7664 54.5512C70.2965 54.5815 69.8494 54.6573 69.425 54.7785C69.0157 54.8846 68.6671 55.0514 68.3792 55.2787C68.0912 55.4909 67.9472 55.794 67.9472 56.1881C67.9472 56.4458 68.0002 56.6656 68.1063 56.8474C68.2276 57.0142 68.3792 57.1582 68.561 57.2794C68.7429 57.4007 68.9475 57.4916 69.1749 57.5522C69.4022 57.5977 69.6296 57.6204 69.8569 57.6204C70.7967 57.6204 71.4863 57.4007 71.9259 56.9611C72.3806 56.5064 72.6079 55.8926 72.6079 55.1196V54.5057ZM83.4074 48.4809H86.3857L89.2958 56.1199H89.3413L92.2741 48.4809H95.0706L90.7736 59.3938H87.8635L83.4074 48.4809ZM96.7201 48.4809H99.4483V59.3938H96.7201V48.4809ZM96.3336 44.775C96.3336 44.3355 96.4928 43.9565 96.8111 43.6382C97.1445 43.3048 97.5613 43.1381 98.0615 43.1381C98.5617 43.1381 98.9785 43.2972 99.3119 43.6155C99.6605 43.9186 99.8348 44.3051 99.8348 44.775C99.8348 45.2449 99.6605 45.6389 99.3119 45.9572C98.9785 46.2604 98.5617 46.4119 98.0615 46.4119C97.5613 46.4119 97.1445 46.2528 96.8111 45.9345C96.4928 45.6011 96.3336 45.2146 96.3336 44.775ZM101.103 48.4809H104.081L106.991 56.1199H107.037L109.969 48.4809H112.766L108.469 59.3938H105.559L101.103 48.4809ZM114.415 48.4809H117.144V59.3938H114.415V48.4809ZM114.029 44.775C114.029 44.3355 114.188 43.9565 114.506 43.6382C114.84 43.3048 115.257 43.1381 115.757 43.1381C116.257 43.1381 116.674 43.2972 117.007 43.6155C117.356 43.9186 117.53 44.3051 117.53 44.775C117.53 45.2449 117.356 45.6389 117.007 45.9572C116.674 46.2604 116.257 46.4119 115.757 46.4119C115.257 46.4119 114.84 46.2528 114.506 45.9345C114.188 45.6011 114.029 45.2146 114.029 44.775ZM122.458 54.8922C122.549 55.7107 122.868 56.3473 123.413 56.802C123.959 57.2567 124.618 57.484 125.391 57.484C126.073 57.484 126.642 57.3476 127.096 57.0748C127.566 56.7868 127.976 56.4306 128.324 56.0062L130.279 57.484C129.643 58.2722 128.93 58.833 128.142 59.1664C127.354 59.4999 126.528 59.6666 125.664 59.6666C124.846 59.6666 124.073 59.5302 123.345 59.2574C122.618 58.9846 121.989 58.5981 121.458 58.0979C120.928 57.5977 120.503 56.999 120.185 56.3018C119.882 55.5894 119.73 54.8013 119.73 53.9373C119.73 53.0734 119.882 52.2928 120.185 51.5956C120.503 50.8832 120.928 50.2769 121.458 49.7768C121.989 49.2766 122.618 48.8901 123.345 48.6173C124.073 48.3444 124.846 48.208 125.664 48.208C126.422 48.208 127.112 48.3444 127.733 48.6173C128.37 48.8749 128.908 49.2539 129.347 49.754C129.802 50.2542 130.151 50.8756 130.393 51.6183C130.651 52.3459 130.78 53.1871 130.78 54.1419V54.8922H122.458ZM128.051 52.846C128.036 52.0427 127.786 51.4137 127.301 50.959C126.816 50.4891 126.142 50.2542 125.278 50.2542C124.459 50.2542 123.807 50.4891 123.322 50.959C122.852 51.4289 122.565 52.0579 122.458 52.846H128.051ZM133.331 48.4809H135.923V50.2315H135.968C136.226 49.6858 136.62 49.216 137.15 48.8219C137.681 48.4127 138.401 48.208 139.31 48.208C140.038 48.208 140.652 48.3293 141.152 48.5718C141.667 48.8143 142.084 49.1326 142.402 49.5267C142.721 49.9208 142.948 50.3755 143.084 50.8908C143.221 51.4061 143.289 51.9442 143.289 52.505V59.3938H140.561V53.8691C140.561 53.566 140.546 53.2325 140.515 52.8688C140.485 52.4898 140.402 52.1412 140.265 51.8229C140.144 51.4895 139.947 51.2167 139.674 51.0045C139.401 50.7771 139.03 50.6634 138.56 50.6634C138.105 50.6634 137.719 50.7392 137.4 50.8908C137.097 51.0424 136.84 51.247 136.627 51.5047C136.43 51.7623 136.286 52.0579 136.196 52.3913C136.105 52.7248 136.059 53.0734 136.059 53.4372V59.3938H133.331V48.4809ZM155.025 57.7569H154.98C154.586 58.4238 154.055 58.9088 153.388 59.2119C152.721 59.5151 152.002 59.6666 151.229 59.6666C150.38 59.6666 149.622 59.5226 148.955 59.2347C148.303 58.9315 147.742 58.5223 147.273 58.0069C146.803 57.4916 146.447 56.8853 146.204 56.1881C145.961 55.4909 145.84 54.7406 145.84 53.9373C145.84 53.134 145.969 52.3838 146.227 51.6865C146.484 50.9893 146.841 50.383 147.295 49.8677C147.765 49.3524 148.326 48.9507 148.978 48.6627C149.629 48.3596 150.342 48.208 151.115 48.208C151.63 48.208 152.085 48.2611 152.479 48.3672C152.873 48.4733 153.222 48.6097 153.525 48.7764C153.828 48.9431 154.086 49.125 154.298 49.3221C154.51 49.5039 154.684 49.6858 154.821 49.8677H154.889V42.2059H157.617V59.3938H155.025V57.7569ZM148.568 53.9373C148.568 54.3617 148.637 54.771 148.773 55.165C148.925 55.5591 149.137 55.9077 149.41 56.2109C149.698 56.514 150.039 56.7565 150.433 56.9384C150.827 57.1203 151.274 57.2112 151.774 57.2112C152.274 57.2112 152.721 57.1203 153.116 56.9384C153.51 56.7565 153.843 56.514 154.116 56.2109C154.404 55.9077 154.616 55.5591 154.752 55.165C154.904 54.771 154.98 54.3617 154.98 53.9373C154.98 53.5129 154.904 53.1037 154.752 52.7096C154.616 52.3155 154.404 51.9669 154.116 51.6638C153.843 51.3607 153.51 51.1182 153.116 50.9363C152.721 50.7544 152.274 50.6634 151.774 50.6634C151.274 50.6634 150.827 50.7544 150.433 50.9363C150.039 51.1182 149.698 51.3607 149.41 51.6638C149.137 51.9669 148.925 52.3155 148.773 52.7096C148.637 53.1037 148.568 53.5129 148.568 53.9373ZM167.527 57.8933H167.459C167.065 58.5147 166.565 58.9694 165.958 59.2574C165.352 59.5302 164.685 59.6666 163.958 59.6666C163.457 59.6666 162.965 59.5984 162.48 59.462C162.01 59.3256 161.586 59.121 161.207 58.8482C160.843 58.5753 160.547 58.2343 160.32 57.8251C160.093 57.4158 159.979 56.9384 159.979 56.3927C159.979 55.8016 160.085 55.3014 160.297 54.8922C160.509 54.4678 160.79 54.1192 161.138 53.8464C161.502 53.5584 161.919 53.3311 162.389 53.1643C162.859 52.9976 163.344 52.8763 163.844 52.8006C164.359 52.7096 164.875 52.6566 165.39 52.6414C165.905 52.6111 166.39 52.5959 166.845 52.5959H167.527V52.3004C167.527 51.6183 167.292 51.1106 166.822 50.7771C166.352 50.4285 165.754 50.2542 165.026 50.2542C164.45 50.2542 163.912 50.3603 163.412 50.5725C162.912 50.7695 162.48 51.0424 162.116 51.391L160.684 49.9587C161.29 49.3372 161.995 48.8901 162.798 48.6173C163.617 48.3444 164.458 48.208 165.322 48.208C166.095 48.208 166.746 48.299 167.277 48.4809C167.807 48.6476 168.247 48.8674 168.596 49.1402C168.944 49.413 169.209 49.7313 169.391 50.0951C169.588 50.4437 169.725 50.7999 169.801 51.1636C169.892 51.5274 169.945 51.8836 169.96 52.2322C169.975 52.5656 169.982 52.8612 169.982 53.1189V59.3938H167.527V57.8933ZM167.368 54.5057H166.8C166.421 54.5057 165.996 54.5209 165.526 54.5512C165.056 54.5815 164.609 54.6573 164.185 54.7785C163.776 54.8846 163.427 55.0514 163.139 55.2787C162.851 55.4909 162.707 55.794 162.707 56.1881C162.707 56.4458 162.76 56.6656 162.866 56.8474C162.988 57.0142 163.139 57.1582 163.321 57.2794C163.503 57.4007 163.708 57.4916 163.935 57.5522C164.162 57.5977 164.39 57.6204 164.617 57.6204C165.557 57.6204 166.246 57.4007 166.686 56.9611C167.141 56.5064 167.368 55.8926 167.368 55.1196V54.5057Z" fill="#054E65"/>
<path d="M1.355 26.0664H6.43259C7.1804 26.0664 7.78662 26.6726 7.78662 27.4204V49.7618C7.78662 50.5096 8.39283 51.1159 9.14064 51.1159H31.1435C31.8913 51.1159 32.4976 51.7221 32.4976 52.4699V57.7167C32.4976 58.4645 31.8913 59.0708 31.1435 59.0708H1.355C0.607193 59.0708 0.000976562 58.4645 0.000976562 57.7167V27.4204C0.000976562 26.6726 0.607193 26.0664 1.355 26.0664Z" fill="#CF5D5F"/>
<path d="M40.4519 35.8805H45.6987C46.4465 35.8805 47.0527 36.4867 47.0527 37.2345V59.9145C47.0527 60.6623 46.4465 61.2685 45.6987 61.2685H24.0343C23.2865 61.2685 22.6803 60.6623 22.6803 59.9145V54.6676C22.6803 53.9198 23.2865 53.3136 24.0343 53.3136H37.7438C38.4916 53.3136 39.0978 52.7074 39.0978 51.9596V37.2345C39.0978 36.4867 39.7041 35.8805 40.4519 35.8805Z" fill="#057091"/>
<path d="M44.5137 48.0679H49.5913C50.3391 48.0679 50.9453 47.4616 50.9453 46.7138V23.0516C50.9453 22.6068 50.7269 22.1905 50.3611 21.9377L20.7418 1.46778C19.8437 0.84709 18.618 1.48994 18.618 2.58168V8.43667C18.618 8.8774 18.8325 9.29056 19.193 9.54413L42.5847 25.999C42.9452 26.2526 43.1597 26.6657 43.1597 27.1065V37.4049V46.7138C43.1597 47.4616 43.7659 48.0679 44.5137 48.0679Z" fill="#FE9D1E"/>
<path d="M28.771 15.3714V9.37664C28.771 8.28008 27.5357 7.63833 26.6385 8.26879L4.29708 23.9682C3.93628 24.2217 3.72154 24.635 3.72154 25.076V39.6054C3.72154 40.3532 4.32776 40.9594 5.07557 40.9594H9.6454C10.3932 40.9594 10.9994 40.3532 10.9994 39.6054V29.1424C10.9994 28.699 11.2165 28.2837 11.5805 28.0307L28.1899 16.4832C28.5539 16.2301 28.771 15.8148 28.771 15.3714Z" fill="#2B6A6C"/>
</svg>
