<svg width="113" height="135" viewBox="0 0 113 135" fill="none" xmlns="http://www.w3.org/2000/svg">
<path d="M2.98309 57.4178H14.1702C15.8178 57.4178 17.1534 58.7535 17.1534 60.4011V109.624C17.1534 111.272 18.489 112.607 20.1366 112.607H68.6139C70.2615 112.607 71.5972 113.943 71.5972 115.591V127.151C71.5972 128.798 70.2615 130.134 68.614 130.134H2.98309C1.3355 130.134 -0.0001297 128.798 -0.0001297 127.151V60.4011C-0.0001297 58.7535 1.3355 57.4178 2.98309 57.4178Z" fill="#CF5D5F"/>
<path d="M89.1228 79.0649H100.683C102.33 79.0649 103.666 80.4006 103.666 82.0482V132.017C103.666 133.665 102.33 135 100.683 135H52.9513C51.3037 135 49.968 133.665 49.968 132.017V120.457C49.968 118.81 51.3037 117.474 52.9513 117.474H83.1564C84.804 117.474 86.1396 116.138 86.1396 114.491V82.0482C86.1396 80.4006 87.4752 79.0649 89.1228 79.0649Z" fill="#057091"/>
<path d="M98.069 105.904H109.256C110.904 105.904 112.239 104.569 112.239 102.921V50.7878C112.239 49.808 111.758 48.8906 110.952 48.3336L45.6942 3.23386C43.7154 1.86633 41.0149 3.28269 41.0149 5.68803V18.5879C41.0149 19.5589 41.4874 20.4692 42.2817 21.0279L93.8189 57.2817C94.6131 57.8404 95.0857 58.7506 95.0857 59.7217V82.4115V102.921C95.0857 104.569 96.4214 105.904 98.069 105.904Z" fill="#FE9D1E"/>
<path d="M63.3887 33.8651V20.6572C63.3887 18.2413 60.667 16.8273 58.6903 18.2164L9.46711 52.8056C8.6722 53.3642 8.19908 54.2749 8.19908 55.2465V87.2579C8.19908 88.9055 9.53471 90.2411 11.1823 90.2411H21.2507C22.8983 90.2411 24.2339 88.9055 24.2339 87.2579V64.2056C24.2339 63.2288 24.7121 62.3138 25.5142 61.7562L62.1084 36.3146C62.9104 35.7569 63.3887 34.842 63.3887 33.8651Z" fill="#2B6A6C"/>
</svg>
